<svg id="Layer_1" data-name="Layer 1" xmlns="http://www.w3.org/2000/svg" viewBox="0 0 917.36 95.48"><defs><style>.cls-1{fill:none;}</style></defs><title>MarioCube</title><line class="cls-1" x1="393.75" y1="48.48" x2="397.75" y2="48.48"/><path d="M31.36,0q19.9,1.41,19.9,2.53,7.66,20.6,9.35,26.3H61q1.83-3.94,14-21.66h.42q19,1.2,19.05,2.6L106,88.17q0,.7-30.09,3.38l-.42-.84Q73.79,55,73.79,47h-.42L56,62.3h-.42q-.84-.42-11.88-18.63h-.42q-13.57,39.52-14.84,42H27.6Q3.34,74.67,0,72.52V72.1Q30.09,1.34,31.36,0Z" transform="translate(-0.04)"/><path d="M139.85.35q39,5.63,43,6.61,0,.56,26.86,80.51-2.81,1-32.41,4.08a209.91,209.91,0,0,1-4.57-21.3q-25.31,2.32-25.31,4.08l-4.57,16.24h-.49Q112.48,85.09,112.48,84,136.33,9.43,139.85.35ZM153.49,49h15.3l-5.62-22.29q-6.54,0-6.54,2.53Q155.53,34.39,153.49,49Z" transform="translate(-0.04)"/><path d="M266.62.07q1.55,1.69,30.16,22.08v.42q-5.84,24-7.66,27.49l-14.84,8.58q26.37,19.06,26.58,19.83Q291.51,83,272,91.55,249.46,60.68,249.46,60h-.84q-.49,18.07-.49,24.82Q247.85,88,246.79,88H225.63q-1.48,0-4.5-39.23-1.41-8.58-4.08-39.66Q225.21,7.32,266.62.07ZM247.21,19.9v.42q0,4.29.49,30.66h.42q17.15-4,17.16-5.41l4-18Z" transform="translate(-0.04)"/><path d="M314.24,6.65l40.09,8.6L338.79,89.78h-24.5Z" transform="translate(-0.04)"/><path d="M424.5,11.13l-37-4.62L359.79,37.7l4.65,42.78,42.73,15L446.44,77l2.35-39.3Zm-2.71,40.52v1.71l-14.7,15.36L388.47,62l-.88-20.64.48-.19,20.72-9.07,13,18.38Z" transform="translate(-0.04)"/><path d="M546.79,24H490.17V72.11h56.62V54.54h20.49V77.32q.94,7.59-7.58,10.61A28.38,28.38,0,0,1,551,89.49q-13.28.1-69,0-11.21,0-12-12.08.21-15.2,0-61.33,0-9.16,15.81-9.89h65.52q14.87,0,16,9.88v23H546.79Z" transform="translate(-0.04)"/><path d="M588.66,6.18h20.8V71.6H662.4V6.18h21.22V76.36q0,12.18-13.1,13.12H601q-11.44,0-12.38-12.91Z" transform="translate(-0.04)"/><path d="M805.08,56.48V78.66q0,10.1-8.84,10.83H707.53V6.18h88.62q8.31,0,8.93,11.25v21q.73,8.23-8.94,8.85Q804.46,46.89,805.08,56.48ZM729.37,36.86h52q3.12,0,3.12-4.89V28.54q0-4.78-3.12-4.78h-52Zm0,34.22h52q3.12,0,3.12-4.89V62.76q0-4.89-3.12-4.89h-52Z" transform="translate(-0.04)"/><path d="M829,89.48V6.28h88.4V23.34H850.53V38.21h39.26v18.1h-39.1V71.18h66.56v18.3Z" transform="translate(-0.04)"/><path d="M408.79,32.1s-20.72,9.07-21.2,9.26Z" transform="translate(-0.04)"/></svg>