<svg id="Layer_1" data-name="Layer 1" xmlns="http://www.w3.org/2000/svg" viewBox="0 0 917.41 95.45"><defs><style>.cls-1{fill:#fff;}</style></defs><title>MarioCube</title><path d="M105.57,143.52q19.9,1.41,19.9,2.53,7.66,20.6,9.35,26.3h.42q1.83-3.94,14-21.66h.42q19.05,1.2,19.05,2.6l11.46,78.4q0,.7-30.09,3.38l-.42-.84Q148,198.51,148,190.56h-.42l-17.37,15.26h-.42q-.84-.42-11.88-18.63h-.42q-13.57,39.52-14.84,42h-.84q-24.26-11-27.56-13.15v-.42Q104.3,144.86,105.57,143.52Z" transform="translate(-74.21 -143.52)"/><path d="M214.06,143.87q39,5.63,43,6.61,0,.56,26.86,80.51-2.81,1.05-32.41,4.08a209.91,209.91,0,0,1-4.57-21.3q-25.31,2.32-25.31,4.08l-4.57,16.24h-.49q-29.88-5.48-29.88-6.61Q210.54,152.95,214.06,143.87Zm13.64,48.66H243l-5.62-22.29q-6.54,0-6.54,2.53Q229.74,177.91,227.7,192.53Z" transform="translate(-74.21 -143.52)"/><path d="M340.83,143.59q1.55,1.69,30.16,22.08v.42q-5.84,24-7.66,27.49l-14.84,8.58q26.37,19.06,26.58,19.83-9.35,4.5-28.83,13.08-22.57-30.87-22.57-31.57h-.84q-.49,18.07-.49,24.82-.28,3.16-1.34,3.16H299.84q-1.48,0-4.5-39.23-1.41-8.58-4.08-39.66Q299.42,150.84,340.83,143.59Zm-19.41,19.83v.42q0,4.29.49,30.66h.42q17.15-4,17.16-5.41l4-18Z" transform="translate(-74.21 -143.52)"/><path d="M388.45,150.17l40.09,8.6L413,233.3h-24.5Z" transform="translate(-74.21 -143.52)"/><polygon points="359.82 37.7 387.55 6.51 424.5 11.13 448.76 37.7 446.45 76.97 407.18 95.45 364.44 80.43 359.82 37.7"/><path class="cls-1" d="M483,175.62l-20.72,9.07-.48.19.88,20.64,18.62,6.72L496,196.88V194Z" transform="translate(-74.21 -143.52)"/><path d="M621,167.48H564.38v48.15H621V198.06h20.49v22.78q.94,7.59-7.58,10.61a28.38,28.38,0,0,1-8.72,1.56q-13.28.1-69,0-11.21,0-12-12.08.21-15.2,0-61.33,0-9.16,15.81-9.89h65.52q14.87,0,16,9.88v23H621Z" transform="translate(-74.21 -143.52)"/><path d="M662.87,149.7h20.8v65.42h52.94V149.7h21.22v70.18q0,12.18-13.1,13.12H675.25q-11.44,0-12.38-12.91Z" transform="translate(-74.21 -143.52)"/><path d="M879.29,200v22.18q0,10.1-8.84,10.83H781.74V149.7h88.62q8.31,0,8.93,11.25v21q.73,8.23-8.94,8.85Q878.67,190.41,879.29,200Zm-75.71-19.62h52q3.12,0,3.12-4.89v-3.43q0-4.78-3.12-4.78h-52Zm0,34.22h52q3.12,0,3.12-4.89v-3.43q0-4.89-3.12-4.89h-52Z" transform="translate(-74.21 -143.52)"/><path d="M903.21,233V149.8h88.4v17.06H924.74v14.87H964v18.1h-39.1V214.7h66.56V233Z" transform="translate(-74.21 -143.52)"/><line class="cls-1" x1="393.79" y1="48.48" x2="397.79" y2="48.48"/></svg>