<svg id="Layer_1" data-name="Layer 1" xmlns="http://www.w3.org/2000/svg" viewBox="0 0 917.4 95.48"><defs><style>.cls-1{fill:none;}.cls-2{fill:#fff;}</style></defs><title>MarioCube2</title><line class="cls-1" x1="393.79" y1="48.48" x2="397.79" y2="48.48"/><path class="cls-2" d="M31.32,0q19.91,1.41,19.9,2.53,7.66,20.6,9.35,26.3H61q1.83-3.94,14-21.66h.42q19,1.2,19.05,2.6L106,88.17q0,.7-30.09,3.38l-.42-.84Q73.76,55,73.75,47h-.42L56,62.3h-.42q-.84-.42-11.88-18.63h-.42Q29.66,83.2,28.4,85.67h-.84Q3.31,74.68,0,72.52V72.1Q30.05,1.34,31.32,0Z" transform="translate(0.04)"/><path class="cls-2" d="M139.81.35q39,5.62,43,6.61,0,.56,26.86,80.51-2.8,1-32.41,4.08a209.67,209.67,0,0,1-4.57-21.3q-25.31,2.32-25.31,4.08l-4.57,16.24h-.49Q112.44,85.1,112.44,84,136.29,9.44,139.81.35ZM153.45,49h15.3l-5.62-22.29q-6.54,0-6.54,2.53Q155.5,34.39,153.45,49Z" transform="translate(0.04)"/><path class="cls-2" d="M266.58.07q1.55,1.69,30.16,22.08v.42q-5.83,24-7.66,27.49l-14.84,8.58q26.37,19.06,26.58,19.83Q291.47,83,272,91.55,249.42,60.68,249.42,60h-.84q-.5,18.07-.49,24.82c-.19,2.12-.63,3.18-1.34,3.18H225.59q-1.49,0-4.5-39.23Q219.68,40.19,217,9.11,225.17,7.33,266.58.07ZM247.17,19.9v.42q0,4.29.49,30.66h.42q17.14-4,17.16-5.41l4-18Z" transform="translate(0.04)"/><path class="cls-2" d="M314.2,6.65l40.09,8.6L338.75,89.78h-24.5Z" transform="translate(0.04)"/><path class="cls-2" d="M424.46,11.13l-37-4.62L359.75,37.7l4.65,42.78,42.73,15L446.4,77l2.35-39.3Zm-2.71,40.52v1.71l-14.7,15.36L388.43,62l-.88-20.64.48-.19,20.72-9.07,13,18.38Z" transform="translate(0.04)"/><path class="cls-2" d="M546.75,24H490.13V72.11h56.62V54.54h20.49V77.32q.94,7.59-7.58,10.61a28.36,28.36,0,0,1-8.7,1.56q-13.28.11-69,0-11.2,0-12-12.08.21-15.19,0-61.33,0-9.16,15.81-9.89h65.52q14.87,0,16,9.88v23H546.75Z" transform="translate(0.04)"/><path class="cls-2" d="M588.62,6.18h20.8V71.6h52.94V6.18h21.22V76.36q0,12.18-13.1,13.12H601q-11.44,0-12.38-12.91Z" transform="translate(0.04)"/><path class="cls-2" d="M805,56.48V78.66q0,10.09-8.84,10.83H707.49V6.18h88.62q8.31,0,8.93,11.25v21q.74,8.24-8.94,8.85Q804.43,46.89,805,56.48ZM729.33,36.86h52q3.12,0,3.12-4.89V28.54q0-4.78-3.12-4.78h-52Zm0,34.22h52q3.12,0,3.12-4.89V62.76q0-4.89-3.12-4.89h-52Z" transform="translate(0.04)"/><path class="cls-2" d="M829,89.48V6.28h88.4V23.34H850.49V38.21h39.26v18.1h-39.1V71.18h66.56v18.3Z" transform="translate(0.04)"/><path d="M408.75,32.1s-20.72,9.07-21.2,9.26Z" transform="translate(0.04)"/></svg>